<svg width="94" height="37" viewBox="0 0 94 37" fill="none" xmlns="http://www.w3.org/2000/svg">
<path d="M8.2 36.3734C5.53333 36.3734 3.51667 35.6234 2.15 34.1234C0.783333 32.5901 0.1 30.4067 0.1 27.5734V25.5734H5.3V27.9734C5.3 30.2401 6.25 31.3734 8.15 31.3734C9.08333 31.3734 9.78333 31.1067 10.25 30.5734C10.75 30.0067 11 29.1067 11 27.8734C11 26.4067 10.6667 25.1234 10 24.0234C9.33333 22.8901 8.1 21.5401 6.3 19.9734C4.03333 17.9734 2.45 16.1734 1.55 14.5734C0.65 12.9401 0.2 11.1067 0.2 9.07341C0.2 6.30675 0.9 4.17341 2.3 2.67341C3.7 1.14008 5.73333 0.373411 8.4 0.373411C11.0333 0.373411 13.0167 1.14008 14.35 2.67341C15.7167 4.17341 16.4 6.34008 16.4 9.17341V10.6234H11.2V8.82341C11.2 7.62341 10.9667 6.75674 10.5 6.22341C10.0333 5.65675 9.35 5.37341 8.45 5.37341C6.61667 5.37341 5.7 6.49008 5.7 8.72341C5.7 9.99008 6.03333 11.1734 6.7 12.2734C7.4 13.3734 8.65 14.7067 10.45 16.2734C12.75 18.2734 14.3333 20.0901 15.2 21.7234C16.0667 23.3567 16.5 25.2734 16.5 27.4734C16.5 30.3401 15.7833 32.5401 14.35 34.0734C12.95 35.6067 10.9 36.3734 8.2 36.3734ZM19.6535 0.873411H25.1535V15.6234L32.1535 0.873411H37.6535L31.1035 13.7234L37.7535 35.8734H32.0035L27.3535 20.2734L25.1535 24.7234V35.8734H19.6535V0.873411ZM40.3566 0.873411H55.3566V5.87341H45.8566V15.1234H53.4066V20.1234H45.8566V30.8734H55.3566V35.8734H40.3566V0.873411ZM63.5707 20.9734L56.9207 0.873411H62.7707L66.5207 13.7234H66.6207L70.3707 0.873411H75.7207L69.0707 20.9734V35.8734H63.5707V20.9734ZM82.6938 5.87341H76.9438V0.873411H93.9438V5.87341H88.1938V35.8734H82.6938V5.87341Z" fill="white"/>
</svg>
